<svg xmlns="http://www.w3.org/2000/svg" viewBox="0 0 16 16" width="16" height="16">
    <g fill="#2e3436">
        <!-- Gear icon for General settings -->
        <path d="M8 2a.5.5 0 0 1 .492.41l.087.973a4.002 4.002 0 0 1 1.946 1.946l.973.087a.5.5 0 0 1 .41.492v2a.5.5 0 0 1-.41.492l-.973.087a4.002 4.002 0 0 1-1.946 1.946l-.087.973a.5.5 0 0 1-.492.41h-2a.5.5 0 0 1-.492-.41l-.087-.973a4.002 4.002 0 0 1-1.946-1.946l-.973-.087a.5.5 0 0 1-.41-.492v-2a.5.5 0 0 1 .41-.492l.973-.087a4.002 4.002 0 0 1 1.946-1.946l.087-.973a.5.5 0 0 1 .492-.41h2zm0 4a2 2 0 1 0 0 4 2 2 0 0 0 0-4z"/>
    </g>
</svg>
